REM DIRINDEX 1\4,1\2\5,1\2\6,1\3\7,1\3\8
REM DIRNAME cjc124,folder01,folder02,folder03,folder04,folder05,folder06,folder07
TITLE ""
FILE "083_Day42_Check2_Phrases.mp3" MP3
  TRACK 01 AUDIO
    TITLE "0:"
    INDEX 01 00:00:00
  TRACK 02 AUDIO
    TITLE "4:cjc124_2709"
    INDEX 01 00:00:33
  TRACK 03 AUDIO
    TITLE "0:"
    INDEX 01 00:01:58
  TRACK 04 AUDIO
    TITLE "5:cjc124_2710"
    INDEX 01 00:02:26
  TRACK 05 AUDIO
    TITLE "0:"
    INDEX 01 00:04:01
  TRACK 06 AUDIO
    TITLE "6:cjc124_2711"
    INDEX 01 00:04:17
  TRACK 07 AUDIO
    TITLE "0:"
    INDEX 01 00:05:59
  TRACK 08 AUDIO
    TITLE "5:cjc124_2712"
    INDEX 01 00:06:22
  TRACK 09 AUDIO
    TITLE "0:"
    INDEX 01 00:08:23
  TRACK 10 AUDIO
    TITLE "6:cjc124_2713"
    INDEX 01 00:08:36
  TRACK 11 AUDIO
    TITLE "0:"
    INDEX 01 00:09:71
  TRACK 12 AUDIO
    TITLE "5:cjc124_2714"
    INDEX 01 00:10:37
  TRACK 13 AUDIO
    TITLE "0:"
    INDEX 01 00:12:61
  TRACK 14 AUDIO
    TITLE "6:cjc124_2715"
    INDEX 01 00:13:04
  TRACK 15 AUDIO
    TITLE "0:"
    INDEX 01 00:14:64
  TRACK 16 AUDIO
    TITLE "5:cjc124_2716"
    INDEX 01 00:15:30
  TRACK 17 AUDIO
    TITLE "0:"
    INDEX 01 00:17:61
  TRACK 18 AUDIO
    TITLE "6:cjc124_2717"
    INDEX 01 00:18:03
  TRACK 19 AUDIO
    TITLE "0:"
    INDEX 01 00:19:46
  TRACK 20 AUDIO
    TITLE "5:cjc124_2718"
    INDEX 01 00:20:12
  TRACK 21 AUDIO
    TITLE "0:"
    INDEX 01 00:21:58
  TRACK 22 AUDIO
    TITLE "6:cjc124_2719"
    INDEX 01 00:21:72
  TRACK 23 AUDIO
    TITLE "0:"
    INDEX 01 00:23:16
  TRACK 24 AUDIO
    TITLE "5:cjc124_2720"
    INDEX 01 00:23:53
  TRACK 25 AUDIO
    TITLE "0:"
    INDEX 01 00:25:46
  TRACK 26 AUDIO
    TITLE "6:cjc124_2721"
    INDEX 01 00:26:05
  TRACK 27 AUDIO
    TITLE "0:"
    INDEX 01 00:27:39
  TRACK 28 AUDIO
    TITLE "5:cjc124_2722"
    INDEX 01 00:28:00
  TRACK 29 AUDIO
    TITLE "0:"
    INDEX 01 00:29:34
  TRACK 30 AUDIO
    TITLE "6:cjc124_2723"
    INDEX 01 00:29:60
  TRACK 31 AUDIO
    TITLE "0:"
    INDEX 01 00:31:29
  TRACK 32 AUDIO
    TITLE "5:cjc124_2724"
    INDEX 01 00:31:67
  TRACK 33 AUDIO
    TITLE "0:"
    INDEX 01 00:33:56
  TRACK 34 AUDIO
    TITLE "6:cjc124_2725"
    INDEX 01 00:34:10
  TRACK 35 AUDIO
    TITLE "0:"
    INDEX 01 00:35:43
  TRACK 36 AUDIO
    TITLE "5:cjc124_2726"
    INDEX 01 00:36:05
  TRACK 37 AUDIO
    TITLE "0:"
    INDEX 01 00:38:35
  TRACK 38 AUDIO
    TITLE "6:cjc124_2727"
    INDEX 01 00:38:53
  TRACK 39 AUDIO
    TITLE "0:"
    INDEX 01 00:41:53
  TRACK 40 AUDIO
    TITLE "5:cjc124_2728"
    INDEX 01 00:42:16
  TRACK 41 AUDIO
    TITLE "0:"
    INDEX 01 00:43:68
  TRACK 42 AUDIO
    TITLE "6:cjc124_2729"
    INDEX 01 00:44:09
  TRACK 43 AUDIO
    TITLE "0:"
    INDEX 01 00:45:35
  TRACK 44 AUDIO
    TITLE "5:cjc124_2730"
    INDEX 01 00:46:06
  TRACK 45 AUDIO
    TITLE "0:"
    INDEX 01 00:48:28
  TRACK 46 AUDIO
    TITLE "6:cjc124_2731"
    INDEX 01 00:48:44
  TRACK 47 AUDIO
    TITLE "0:"
    INDEX 01 00:50:11
  TRACK 48 AUDIO
    TITLE "5:cjc124_2732"
    INDEX 01 00:50:48
  TRACK 49 AUDIO
    TITLE "0:"
    INDEX 01 00:52:37
  TRACK 50 AUDIO
    TITLE "6:cjc124_2733"
    INDEX 01 00:52:55
  TRACK 51 AUDIO
    TITLE "0:"
    INDEX 01 00:54:11
  TRACK 52 AUDIO
    TITLE "5:cjc124_2734"
    INDEX 01 00:54:54
  TRACK 53 AUDIO
    TITLE "0:"
    INDEX 01 00:56:37
  TRACK 54 AUDIO
    TITLE "6:cjc124_2735"
    INDEX 01 00:56:53
  TRACK 55 AUDIO
    TITLE "0:"
    INDEX 01 00:58:46
  TRACK 56 AUDIO
    TITLE "5:cjc124_2736"
    INDEX 01 00:59:08
  TRACK 57 AUDIO
    TITLE "0:"
    INDEX 01 01:00:70
  TRACK 58 AUDIO
    TITLE "6:cjc124_2737"
    INDEX 01 01:01:11
  TRACK 59 AUDIO
    TITLE "0:"
    INDEX 01 01:02:28
  TRACK 60 AUDIO
    TITLE "5:cjc124_2738"
    INDEX 01 01:02:67
  TRACK 61 AUDIO
    TITLE "0:"
    INDEX 01 01:04:64
  TRACK 62 AUDIO
    TITLE "6:cjc124_2739"
    INDEX 01 01:05:05
  TRACK 63 AUDIO
    TITLE "0:"
    INDEX 01 01:06:53
  TRACK 64 AUDIO
    TITLE "5:cjc124_2740"
    INDEX 01 01:07:15
  TRACK 65 AUDIO
    TITLE "0:"
    INDEX 01 01:09:01
  TRACK 66 AUDIO
    TITLE "6:cjc124_2741"
    INDEX 01 01:09:16
  TRACK 67 AUDIO
    TITLE "0:"
    INDEX 01 01:10:67
